<svg width="22" height="21" viewBox="0 0 22 21" fill="none" xmlns="http://www.w3.org/2000/svg">
<path d="M12.9737 10.7538C12.9698 13.6868 10.9982 15.7735 8.03843 15.7696C5.18575 15.7658 2.89864 13.4592 2.90241 10.6199C2.90619 7.78059 5.19943 5.48006 8.0521 5.48385C9.35121 5.48558 10.5426 5.94252 11.4923 6.82771L10.0976 8.17854C9.54924 7.6421 8.79957 7.38663 8.04958 7.38564C6.26833 7.38327 4.84673 8.8546 4.84438 10.6225C4.84203 12.3903 6.25971 13.8654 8.04096 13.8678C9.39364 13.8696 10.734 13.0812 10.9501 11.6618L8.0439 11.658L8.04625 9.8901L12.8945 9.89655C12.9477 10.1779 12.9741 10.4592 12.9737 10.7538ZM17.5934 11.376L17.5914 12.8492L16.1182 12.8473L16.1202 11.374L14.647 11.3721L14.6489 9.89888L16.1221 9.90084L16.1241 8.42762L17.5973 8.42958L17.5953 9.90279L19.0552 9.90473L19.0532 11.3779L17.5934 11.376ZM21.264 10.6443C21.2716 4.96571 16.6705 0.352449 10.992 0.3449C5.31341 0.337351 0.700143 4.93837 0.692595 10.6169C0.685046 16.2955 5.28606 20.9088 10.9646 20.9163C16.6432 20.9239 21.2565 16.3228 21.264 10.6443Z" fill="url(#paint0_linear)"/>
<defs>
<linearGradient id="paint0_linear" x1="-7.31397" y1="12.711" x2="60.8889" y2="12.8017" gradientUnits="userSpaceOnUse">
<stop stop-color="#9ACD32"/>
<stop offset="0.557292" stop-color="#0073FF"/>
</linearGradient>
</defs>
</svg>
