<svg width="44" height="44" viewBox="0 0 44 44" fill="none" xmlns="http://www.w3.org/2000/svg">
<path d="M31.167 12.8335H23.8337V16.5002H31.167C34.192 16.5002 36.667 18.9752 36.667 22.0002C36.667 25.0252 34.192 27.5002 31.167 27.5002H23.8337V31.1668H31.167C36.227 31.1668 40.3337 27.0602 40.3337 22.0002C40.3337 16.9402 36.227 12.8335 31.167 12.8335ZM20.167 27.5002H12.8337C9.80866 27.5002 7.33366 25.0252 7.33366 22.0002C7.33366 18.9752 9.80866 16.5002 12.8337 16.5002H20.167V12.8335H12.8337C7.77366 12.8335 3.66699 16.9402 3.66699 22.0002C3.66699 27.0602 7.77366 31.1668 12.8337 31.1668H20.167V27.5002ZM14.667 20.1668H29.3337V23.8335H14.667V20.1668Z" fill="#BFBFBF"/>
</svg>
