<svg width="21" height="21" viewBox="0 0 21 21" fill="none" xmlns="http://www.w3.org/2000/svg">
<path d="M14.0543 18.5301C12.9957 18.9707 11.8436 19.2236 10.6248 19.222C8.49536 19.2191 6.55441 18.4532 5.02928 17.2056C5.02928 17.2056 5.14971 17.2861 5.22998 17.3532C6.92236 13.6858 12.1346 11.8713 12.1346 11.8713C12.148 11.8713 12.1748 11.858 12.1882 11.858C13.4161 15.0739 13.9214 17.7531 14.0543 18.5301ZM11.5874 10.3974C11.4803 10.4374 11.3597 10.464 11.2391 10.504C11.2391 10.504 6.496 12.0245 4.093 16.2936C2.70221 14.7382 1.84781 12.6746 1.8508 10.4246C1.85092 10.3308 1.85105 10.2371 1.86456 10.1434C2.01188 10.1436 6.35102 10.2565 10.8796 8.90981C11.1334 9.40568 11.3738 9.90154 11.5874 10.3974ZM10.1582 7.55617C5.93796 8.66216 2.26838 8.61711 2.0407 8.61681C2.62021 5.89882 4.44464 3.63785 6.89706 2.48933C7.01739 2.6502 8.635 4.84878 10.1582 7.55617ZM19.3132 11.8407C18.9082 14.291 17.5125 16.4052 15.542 17.7285C15.4489 17.2061 14.9836 14.6206 13.8361 11.445C16.6759 11.0068 19.1258 11.7868 19.3132 11.8407ZM8.54517 1.90223C8.53177 1.90221 8.51836 1.91559 8.51836 1.91559C8.53177 1.90221 8.53177 1.90221 8.54517 1.90223ZM16.4444 3.8547C16.4175 3.89484 15.1695 5.79497 11.8598 7.02271C10.3635 4.26179 8.70565 2.07655 8.57195 1.90227C9.24181 1.74244 9.93836 1.64962 10.6482 1.65056C12.8714 1.65352 14.906 2.48658 16.4444 3.8547ZM19.4223 10.3542C19.3152 10.3407 16.3295 9.68044 13.3022 10.0648C13.2354 9.9174 13.1821 9.75662 13.1153 9.60921C12.9284 9.18039 12.728 8.75155 12.5277 8.3361C15.9983 6.92107 17.4073 4.88723 17.4341 4.86048C18.6642 6.36212 19.3983 8.27827 19.4223 10.3542ZM20.9222 10.4499C20.9298 4.77138 16.3287 0.158113 10.6502 0.150564C4.97161 0.143015 0.358347 4.74403 0.350798 10.4226C0.343249 16.1012 4.94426 20.7144 10.6228 20.722C16.3014 20.7295 20.9147 16.1285 20.9222 10.4499Z" fill="url(#paint0_linear)"/>
<defs>
<linearGradient id="paint0_linear" x1="-7.65577" y1="12.5167" x2="60.5471" y2="12.6074" gradientUnits="userSpaceOnUse">
<stop stop-color="#9ACD32"/>
<stop offset="0.557292" stop-color="#0073FF"/>
</linearGradient>
</defs>
</svg>
