<svg width="21" height="21" viewBox="0 0 21 21" fill="none" xmlns="http://www.w3.org/2000/svg">
<path d="M16.9059 0.0614539L4.04876 0.0443621C1.9193 0.0415312 0.189323 1.76691 0.186492 3.89637L0.1694 16.7535C0.166569 18.883 1.89195 20.6129 4.02141 20.6158L11.1464 20.6252L11.157 12.6565L8.47843 12.6529L8.48256 9.5458L11.1611 9.54936L11.1642 7.25918C11.1677 4.6074 12.8036 3.16315 15.1741 3.1663C16.2991 3.16779 17.2767 3.24945 17.5578 3.29L17.5542 6.06232L15.9202 6.07354C14.6211 6.07182 14.3792 6.67417 14.378 7.57149L14.3754 9.55363L17.4424 9.55771L17.0365 12.6643L14.3713 12.6608L14.3607 20.6295L16.8785 20.6329C19.008 20.6357 20.738 18.9103 20.7408 16.7809L20.7579 3.92372C20.7607 1.79426 19.0354 0.0642847 16.9059 0.0614539Z" fill="url(#paint0_linear)"/>
<defs>
<linearGradient id="paint0_linear" x1="-7.82862" y1="12.4191" x2="60.3743" y2="12.5097" gradientUnits="userSpaceOnUse">
<stop stop-color="#9ACD32"/>
<stop offset="0.557292" stop-color="#0073FF"/>
</linearGradient>
</defs>
</svg>
