<svg width="22" height="21" viewBox="0 0 22 21" fill="none" xmlns="http://www.w3.org/2000/svg">
<path d="M10.8201 0.247244C5.14153 0.239695 0.528268 4.84071 0.52072 10.5193C0.514684 15.0595 3.45598 18.9205 7.53898 20.292C8.06118 20.3865 8.24911 20.0653 8.24946 19.7974C8.2498 19.543 8.23748 18.7394 8.23862 17.8822C8.23862 17.8822 5.37173 18.4945 4.77149 16.6589C4.77149 16.6589 4.30433 15.4663 3.63509 15.1573C3.63509 15.1573 2.69845 14.5132 3.70289 14.528C3.70289 14.528 4.72064 14.6097 5.28184 15.5881C6.17706 17.1697 7.67767 16.7163 8.26731 16.4492C8.36193 15.7931 8.63039 15.3381 8.92539 15.0706C6.63555 14.8131 4.23941 13.926 4.24464 9.98851C4.24614 8.86351 4.64913 7.95333 5.30635 7.23099C5.19956 6.96299 4.85273 5.91789 5.41712 4.49899C6.27462 4.23228 8.2416 5.56079 8.2416 5.56079C9.05887 5.33419 9.94296 5.21483 10.8135 5.21599C11.684 5.21715 12.5678 5.33886 13.3845 5.56762C13.3845 5.56762 15.355 4.24435 16.2118 4.51334C16.7724 5.93373 16.4228 6.97791 16.3153 7.24563C16.9706 7.96971 17.3711 8.88096 17.3696 10.006C17.3644 13.9568 14.9525 14.8242 12.662 15.0756C13.0366 15.3975 13.3572 16.014 13.3559 16.9783C13.3541 18.3578 13.3392 19.4694 13.3387 19.8042C13.3384 20.072 13.5255 20.3937 14.0479 20.3007C18.1345 18.94 21.0861 15.0868 21.0921 10.5466C21.0997 4.86806 16.4987 0.254793 10.8201 0.247244ZM4.41207 15.0111C4.38522 15.0646 4.30484 15.0779 4.23793 15.0376C4.15763 14.9973 4.11754 14.9303 4.14439 14.8768C4.17123 14.8366 4.23822 14.8233 4.31854 14.8502C4.39884 14.8905 4.43893 14.9575 4.41207 15.0111ZM4.82665 15.467C4.773 15.5205 4.67929 15.4936 4.61241 15.4265C4.54556 15.3461 4.53229 15.2523 4.58591 15.2122C4.63956 15.1587 4.73327 15.1856 4.80015 15.2526C4.867 15.3331 4.88027 15.4269 4.82665 15.467ZM5.22763 16.0702C5.17401 16.1103 5.06692 16.07 5.00008 15.9761C4.93324 15.8823 4.93338 15.7751 5.0004 15.7351C5.06743 15.6816 5.17452 15.7219 5.22797 15.8157C5.29481 15.9096 5.29467 16.0167 5.22763 16.0702ZM5.78938 16.6334C5.73572 16.7003 5.6152 16.6868 5.52158 16.5929C5.42794 16.5124 5.40131 16.3918 5.46835 16.3384C5.52201 16.2715 5.64252 16.285 5.73615 16.3789C5.8164 16.4594 5.84302 16.5799 5.78938 16.6334ZM6.55233 16.9693C6.52544 17.0496 6.40485 17.0896 6.29776 17.0493C6.17726 17.0223 6.09703 16.9285 6.12392 16.8482C6.15081 16.7678 6.2714 16.7278 6.37851 16.7547C6.49899 16.7951 6.57922 16.8889 6.55233 16.9693ZM7.39599 17.0374C7.39588 17.1177 7.30204 17.1845 7.18151 17.1844C7.04756 17.1976 6.9539 17.1305 6.95403 17.0368C6.95413 16.9564 7.04797 16.8896 7.16851 16.8897C7.28906 16.8765 7.39611 16.9436 7.39599 17.0374ZM8.17295 16.9045C8.18624 16.9848 8.10577 17.0651 7.9852 17.0917C7.86463 17.1183 7.75756 17.0646 7.74427 16.9842C7.73101 16.8905 7.81147 16.8102 7.93204 16.7836C8.05259 16.7704 8.15967 16.8241 8.17295 16.9045Z" fill="url(#paint0_linear)"/>
<defs>
<linearGradient id="paint0_linear" x1="-7.48585" y1="12.6134" x2="60.717" y2="12.7041" gradientUnits="userSpaceOnUse">
<stop stop-color="#9ACD32"/>
<stop offset="0.557292" stop-color="#0073FF"/>
</linearGradient>
</defs>
</svg>
