<svg width="24" height="24" viewBox="0 0 24 24" fill="none" xmlns="http://www.w3.org/2000/svg">
<path d="M7.03467 21.2802C7.40603 22.7656 9.04622 23.137 9.8199 23.137C12.7599 23.137 18.9183 23.137 20.0324 23.137C22.2606 21.6515 21.8892 19.8873 20.4966 19.4233C21.8892 18.4947 23.2819 17.1021 20.4966 16.1739C23.7461 15.2453 23.2819 12.9243 21.425 12.4603C24.2103 11.0676 22.8176 8.74662 20.9608 8.74662H14.462L15.8546 3.17581C15.8546 0.855193 13.9977 0.390677 12.6051 1.7832L8.89149 9.21048H7.03467M7.03467 21.2802C5.54921 21.2802 2.39262 21.2802 1 21.2802V9.21048H7.03467M7.03467 21.2802V9.21048" stroke="#BFBFBF" stroke-width="1.5"/>
<circle cx="3.32099" cy="18.4948" r="0.92841" fill="#C4C4C4"/>
</svg>
