<svg width="22" height="18" viewBox="0 0 22 18" fill="none" xmlns="http://www.w3.org/2000/svg">
<path d="M21.8562 2.72026C21.079 3.05404 20.2349 3.294 19.3642 3.38659C20.2623 2.85207 20.9464 2.00923 21.2692 1.00519C20.4382 1.49962 19.5002 1.85998 18.5223 2.04618C17.7332 1.20138 16.6089 0.677566 15.3634 0.67591C12.966 0.672723 11.0349 2.61212 11.0317 4.99605C11.0313 5.33087 11.071 5.66574 11.1376 5.98726C7.54852 5.79499 4.34991 4.07645 2.22393 1.44862C1.84808 2.09098 1.63281 2.8273 1.63175 3.63087C1.62975 5.13087 2.39138 6.45778 3.55553 7.23611C2.84574 7.20838 2.17637 7.0066 1.6009 6.68441C1.60088 6.6978 1.60085 6.72458 1.60083 6.73798C1.59803 8.84065 3.08233 10.5837 5.06393 10.9881C4.7022 11.0814 4.31374 11.1344 3.92535 11.1339C3.6441 11.1336 3.37627 11.1064 3.10847 11.0659C3.6553 12.7809 5.24739 14.0285 7.14912 14.0713C5.66097 15.2345 3.79845 15.915 1.77613 15.9123C1.41453 15.9118 1.07972 15.898 0.731564 15.8574C2.6451 17.0921 4.92094 17.8049 7.37183 17.8082C15.3272 17.8187 19.6886 11.2352 19.6962 5.5165C19.6965 5.329 19.6967 5.1415 19.6836 4.95398C20.5281 4.33903 21.2658 3.57662 21.8562 2.72026Z" fill="url(#paint0_linear)"/>
<defs>
<linearGradient id="paint0_linear" x1="-7.00001" y1="11.3224" x2="61.2029" y2="11.413" gradientUnits="userSpaceOnUse">
<stop stop-color="#9ACD32"/>
<stop offset="0.557292" stop-color="#0073FF"/>
</linearGradient>
</defs>
</svg>
